<?xml version="1.0" standalone="yes"?>
<svg xmlns="http://www.w3.org/2000/svg" width="500" height="500">
<path style="fill:#d9d9d9; stroke:none;" d="M0 0L0 500L500 500L500 0L0 0z"/>
<path style="fill:#b2a7a7; stroke:none;" d="M128 151L129 154L130 154L128 151z"/>
<path style="fill:#795f5f; stroke:none;" d="M130 154L131 155L130 154z"/>
<path style="fill:#b2a7a7; stroke:none;" d="M130 155L131 156L130 155z"/>
<path style="fill:#795f5f; stroke:none;" d="M131 156L132 157L131 156z"/>
<path style="fill:#816a6a; stroke:none;" d="M131 157L132 158L131 157z"/>
<path style="fill:#b2a7a7; stroke:none;" d="M135 157L136 158L135 157M131 158L132 159L131 158z"/>
<path style="fill:#795f5f; stroke:none;" d="M132 158L132 161L133 161L132 158z"/>
<path style="fill:#816a6a; stroke:none;" d="M136 158L137 159L136 158z"/>
<path style="fill:#b2a7a7; stroke:none;" d="M137.333 159.667L137.667 160.333L137.333 159.667z"/>
<path style="fill:#816a6a; stroke:none;" d="M132 161L133 162L132 161z"/>
<path style="fill:#978585; stroke:none;" d="M133 161L132 163L133 161M138.333 161.667L138.667 162.333L138.333 161.667z"/>
<path style="fill:#795f5f; stroke:none;" d="M133 162L133 167L134 167L133 162z"/>
<path style="fill:#b2a7a7; stroke:none;" d="M132 163L133 164L132 163z"/>
<path style="fill:#978585; stroke:none;" d="M139 163L140 164L139 163z"/>
<path style="fill:#816a6a; stroke:none;" d="M139 164L140 165L139 164z"/>
<path style="fill:#b2a7a7; stroke:none;" d="M139 165L140 166L139 165M132 166L133 167L132 166z"/>
<path style="fill:#816a6a; stroke:none;" d="M140 166L141 167L140 166z"/>
<path style="fill:#978585; stroke:none;" d="M132 167L133 168L132 167z"/>
<path style="fill:#816a6a; stroke:none;" d="M133 167L132 169L133 167z"/>
<path style="fill:#795f5f; stroke:none;" d="M140 167C139.929 175.447 136.312 180.074 132 187C137.927 182.624 143.138 174.494 140 167z"/>
<path style="fill:#b2a7a7; stroke:none;" d="M133 168L134 169L133 168z"/>
<path style="fill:#795f5f; stroke:none;" d="M132.333 169.667L132.667 170.333L132.333 169.667z"/>
<path style="fill:#978585; stroke:none;" d="M131.667 171.333L132.333 171.667L131.667 171.333z"/>
<path style="fill:#795f5f; stroke:none;" d="M131 172L132 173L131 172z"/>
<path style="fill:#b2a7a7; stroke:none;" d="M130 173L131 174L130 173z"/>
<path style="fill:#816a6a; stroke:none;" d="M131 173L132 174L131 173z"/>
<path style="fill:#795f5f; stroke:none;" d="M130 174L131 175L130 174z"/>
<path style="fill:#b2a7a7; stroke:none;" d="M139 174L140 175L139 174M129 175L130 176L129 175z"/>
<path style="fill:#816a6a; stroke:none;" d="M130 175L131 176L130 175z"/>
<path style="fill:#b2a7a7; stroke:none;" d="M140 175L141 176L140 175z"/>
<path style="fill:#795f5f; stroke:none;" d="M129 176L130 177L129 176z"/>
<path style="fill:#816a6a; stroke:none;" d="M128 177L129 178L128 177z"/>
<path style="fill:#978585; stroke:none;" d="M129 177L130 178L129 177M138 177L139 178L138 177z"/>
<path style="fill:#795f5f; stroke:none;" d="M128 178L129 179L128 178M127 179L125 183L126 183L127 179z"/>
<path style="fill:#816a6a; stroke:none;" d="M137 179L138 180L137 179z"/>
<path style="fill:#978585; stroke:none;" d="M127 180L128 181L127 180z"/>
<path style="fill:#b2a7a7; stroke:none;" d="M125 181L126 182L125 181z"/>
<path style="fill:#978585; stroke:none;" d="M137 181L138 182L137 181z"/>
<path style="fill:#795f5f; stroke:none;" d="M124 183L108 203C115.237 199.382 127.073 194.281 131 187L115 197L124 183z"/>
<path style="fill:#816a6a; stroke:none;" d="M134 183L135 184L134 183z"/>
<path style="fill:#978585; stroke:none;" d="M124 184L125 185L124 184z"/>
<path style="fill:#816a6a; stroke:none;" d="M133 184L134 185L133 184M122 185L123 186L122 185M132 185L133 186L132 185z"/>
<path style="fill:#b2a7a7; stroke:none;" d="M134 185L135 186L134 185M121 186L122 187L121 186z"/>
<path style="fill:#816a6a; stroke:none;" d="M131 186L132 187L131 186z"/>
<path style="fill:#b2a7a7; stroke:none;" d="M133 186L134 187L133 186M131.667 187.333L132.333 187.667L131.667 187.333M121 188L122 189L121 188z"/>
<path style="fill:#978585; stroke:none;" d="M120 189L121 190L120 189z"/>
<path style="fill:#b2a7a7; stroke:none;" d="M127 189L128 190L127 189z"/>
<path style="fill:#816a6a; stroke:none;" d="M119 190L120 191L119 190M126 190L127 191L126 190M128 190L129 191L128 190M117 191L118 192L117 191z"/>
<path style="fill:#b2a7a7; stroke:none;" d="M124 191L125 192L124 191M127 191L128 192L127 191z"/>
<path style="fill:#978585; stroke:none;" d="M116 192L117 193L116 192z"/>
<path style="fill:#816a6a; stroke:none;" d="M123 192L124 193L123 192z"/>
<path style="fill:#b2a7a7; stroke:none;" d="M115 193L116 194L115 193M121 193L122 194L121 193M124 193L125 194L124 193z"/>
<path style="fill:#978585; stroke:none;" d="M116 194L117 195L116 194z"/>
<path style="fill:#816a6a; stroke:none;" d="M122 194L123 195L122 194M115 195L117 197L115 195z"/>
<path style="fill:#d9d9d9; stroke:none;" d="M115 196L116 197L115 196z"/>
<path style="fill:#816a6a; stroke:none;" d="M112 197L113 198L112 197M114 197L115 198L114 197z"/>
<path style="fill:#b2a7a7; stroke:none;" d="M117 197L118 198L117 197z"/>
<path style="fill:#978585; stroke:none;" d="M111 198L112 199L111 198z"/>
<path style="fill:#816a6a; stroke:none;" d="M110 199L111 200L110 199z"/>
<path style="fill:#978585; stroke:none;" d="M112 199L113 200L112 199z"/>
<path style="fill:#816a6a; stroke:none;" d="M108 200L109 201L108 200M111 200L112 201L111 200z"/>
<path style="fill:#978585; stroke:none;" d="M106 201L107 202L106 201z"/>
<path style="fill:#b2a7a7; stroke:none;" d="M107 201L108 202L107 201z"/>
<path style="fill:#d9d9d9; stroke:none;" d="M108 201L109 202L108 201z"/>
<path style="fill:#816a6a; stroke:none;" d="M107 203L108 204L107 203z"/>
<path style="fill:#978585; stroke:none;" d="M108.333 203.667L108.667 204.333L108.333 203.667z"/>
<path style="fill:#b2a7a7; stroke:none;" d="M106 204L107 205L106 204z"/>
<path style="fill:#795f5f; stroke:none;" d="M107 204L88 232C93.4931 227.7 107.352 210.946 107 204z"/>
<path style="fill:#816a6a; stroke:none;" d="M104 207L105 208L104 207z"/>
<path style="fill:#b2a7a7; stroke:none;" d="M103 208L104 209L103 208z"/>
<path style="fill:#978585; stroke:none;" d="M105 208L106 209L105 208z"/>
<path style="fill:#816a6a; stroke:none;" d="M101 211L102 212L101 211M118 211L119 212L118 211z"/>
<path style="fill:#795f5f; stroke:none;" d="M119 211L119 212L123 212L119 211z"/>
<path style="fill:#816a6a; stroke:none;" d="M123 211L124 212L123 211z"/>
<path style="fill:#b2a7a7; stroke:none;" d="M124 211L125 212L124 211M100 212L101 213L100 212z"/>
<path style="fill:#978585; stroke:none;" d="M102 212L103 213L102 212z"/>
<path style="fill:#795f5f; stroke:none;" d="M115.667 212.333L116.333 212.667L115.667 212.333z"/>
<path style="fill:#978585; stroke:none;" d="M117 212L118 213L117 212z"/>
<path style="fill:#b2a7a7; stroke:none;" d="M126.667 212.333L127.333 212.667L126.667 212.333M132 212L133 213L132 212M134 212L135 213L134 212z"/>
<path style="fill:#816a6a; stroke:none;" d="M113.667 213.333L114.333 213.667L113.667 213.333z"/>
<path style="fill:#b2a7a7; stroke:none;" d="M130 213L131 214L130 213z"/>
<path style="fill:#978585; stroke:none;" d="M131.333 213.667L131.667 214.333L131.333 213.667z"/>
<path style="fill:#d9d9d9; stroke:none;" d="M132.333 213.667L132.667 214.333L132.333 213.667z"/>
<path style="fill:#816a6a; stroke:none;" d="M133 213L134 214L133 213z"/>
<path style="fill:#d9d9d9; stroke:none;" d="M134 213L135 214L134 213z"/>
<path style="fill:#978585; stroke:none;" d="M135 213L136 214L135 213z"/>
<path style="fill:#795f5f; stroke:none;" d="M112 214L113 215L112 214z"/>
<path style="fill:#b2a7a7; stroke:none;" d="M119 214L120 215L119 214z"/>
<path style="fill:#795f5f; stroke:none;" d="M113 217L113 218L119 216L119 220L118 220L118 218L117 218L120 222L119 220L120 220L124 222L126 220L129 215C123.743 212.795 117.971 214.8 113 217z"/>
<path style="fill:#816a6a; stroke:none;" d="M129.667 214.333L130.333 214.667L129.667 214.333z"/>
<path style="fill:#978585; stroke:none;" d="M133.667 214.333L134.333 214.667L133.667 214.333M98 215L99 216L98 215z"/>
<path style="fill:#b2a7a7; stroke:none;" d="M100 215L101 216L100 215z"/>
<path style="fill:#978585; stroke:none;" d="M111 215L112 216L111 215M116 215L117 216L116 215M120 215L124 219L120 215z"/>
<path style="fill:#d9d9d9; stroke:none;" d="M124 215L125 216L124 215z"/>
<path style="fill:#b2a7a7; stroke:none;" d="M132 215L133 216L132 215M110 216L111 217L110 216M118 216L119 217L118 216z"/>
<path style="fill:#d9d9d9; stroke:none;" d="M125 216L125 219L126 219L125 216z"/>
<path style="fill:#816a6a; stroke:none;" d="M126 216L126 219L127 219L126 216z"/>
<path style="fill:#b2a7a7; stroke:none;" d="M143 216L143 219L144 219L143 216z"/>
<path style="fill:#816a6a; stroke:none;" d="M112 217L113 218L112 217M114 217L115 218L114 217M117.667 217.333L118.333 217.667L117.667 217.333z"/>
<path style="fill:#978585; stroke:none;" d="M96 218L97 219L96 218M110 218L111 219L110 218z"/>
<path style="fill:#795f5f; stroke:none;" d="M111 218L112 219L111 218z"/>
<path style="fill:#b2a7a7; stroke:none;" d="M112 218L113 219L112 218M118 218L119 219L118 218z"/>
<path style="fill:#816a6a; stroke:none;" d="M97 219L98 220L97 219z"/>
<path style="fill:#795f5f; stroke:none;" d="M109 219L110 220L109 219z"/>
<path style="fill:#d9d9d9; stroke:none;" d="M118 219L119 220L118 219z"/>
<path style="fill:#b2a7a7; stroke:none;" d="M124.333 219.667L124.667 220.333L124.333 219.667M131 219L132 220L131 219z"/>
<path style="fill:#978585; stroke:none;" d="M143 219L144 220L143 219z"/>
<path style="fill:#d9d9d9; stroke:none;" d="M119 220L120 221L119 220z"/>
<path style="fill:#816a6a; stroke:none;" d="M120 220L121 221L120 220z"/>
<path style="fill:#d9d9d9; stroke:none;" d="M123 220L124 221L123 220z"/>
<path style="fill:#978585; stroke:none;" d="M125 220L126 221L125 220z"/>
<path style="fill:#816a6a; stroke:none;" d="M129 220L130 221L129 220z"/>
<path style="fill:#b2a7a7; stroke:none;" d="M130 220L131 221L130 220z"/>
<path style="fill:#816a6a; stroke:none;" d="M143 220L144 221L143 220z"/>
<path style="fill:#978585; stroke:none;" d="M94 221L95 222L94 221z"/>
<path style="fill:#b2a7a7; stroke:none;" d="M96 221L97 222L96 221M120 221L120 222L123 222L123 221L120 221z"/>
<path style="fill:#d9d9d9; stroke:none;" d="M121 221L122 222L121 221z"/>
<path style="fill:#978585; stroke:none;" d="M124.333 221.667L124.667 222.333L124.333 221.667z"/>
<path style="fill:#816a6a; stroke:none;" d="M127.667 221.333L128.333 221.667L127.667 221.333z"/>
<path style="fill:#795f5f; stroke:none;" d="M143 221L143 224L144 224L143 221z"/>
<path style="fill:#816a6a; stroke:none;" d="M95 222L96 223L95 222z"/>
<path style="fill:#d9d9d9; stroke:none;" d="M122.667 222.333L123.333 222.667L122.667 222.333z"/>
<path style="fill:#795f5f; stroke:none;" d="M125 222L126 223L125 222z"/>
<path style="fill:#816a6a; stroke:none;" d="M126 222L127 223L126 222z"/>
<path style="fill:#b2a7a7; stroke:none;" d="M129 222L130 223L129 222M111 223L112 224L111 223z"/>
<path style="fill:#816a6a; stroke:none;" d="M112 223L113 224L112 223z"/>
<path style="fill:#978585; stroke:none;" d="M113 223L114 224L113 223z"/>
<path style="fill:#b2a7a7; stroke:none;" d="M114 223L114 224L118 225L114 223z"/>
<path style="fill:#978585; stroke:none;" d="M118 223L119 224L118 223z"/>
<path style="fill:#816a6a; stroke:none;" d="M119 223L120 224L119 223z"/>
<path style="fill:#795f5f; stroke:none;" d="M120 223L120 224L123 224L120 223z"/>
<path style="fill:#816a6a; stroke:none;" d="M123 223L124 224L123 223z"/>
<path style="fill:#b2a7a7; stroke:none;" d="M124 223L125 224L124 223z"/>
<path style="fill:#d9d9d9; stroke:none;" d="M125.667 223.333L126.333 223.667L125.667 223.333z"/>
<path style="fill:#b2a7a7; stroke:none;" d="M127 223L128 224L127 223z"/>
<path style="fill:#978585; stroke:none;" d="M92 224L93 225L92 224z"/>
<path style="fill:#b2a7a7; stroke:none;" d="M94 224L95 225L94 224z"/>
<path style="fill:#816a6a; stroke:none;" d="M125 224L126 225L125 224z"/>
<path style="fill:#b2a7a7; stroke:none;" d="M126 224L127 225L126 224z"/>
<path style="fill:#816a6a; stroke:none;" d="M143 224L144 225L143 224M93 225L94 226L93 225z"/>
<path style="fill:#978585; stroke:none;" d="M117 225L118 226L117 225z"/>
<path style="fill:#816a6a; stroke:none;" d="M118 225L118 226L122 226L118 225z"/>
<path style="fill:#978585; stroke:none;" d="M122 225L123 226L122 225z"/>
<path style="fill:#b2a7a7; stroke:none;" d="M123 225L124 226L123 225M142.667 225.333L143.333 225.667L142.667 225.333z"/>
<path style="fill:#795f5f; stroke:none;" d="M142.333 226.667L142.667 227.333L142.333 226.667z"/>
<path style="fill:#b2a7a7; stroke:none;" d="M90 227L91 228L90 227z"/>
<path style="fill:#978585; stroke:none;" d="M92 227L93 228L92 227z"/>
<path style="fill:#816a6a; stroke:none;" d="M142 228L143 229L142 228M89 229L90 230L89 229z"/>
<path style="fill:#978585; stroke:none;" d="M141 229L142 230L141 229M90 230L91 231L90 230z"/>
<path style="fill:#795f5f; stroke:none;" d="M141 230L142 231L141 230z"/>
<path style="fill:#978585; stroke:none;" d="M89 231L87 234L89 231z"/>
<path style="fill:#b2a7a7; stroke:none;" d="M141 231L142 232L141 231M87 232L88 233L87 232M89 232L90 233L89 232z"/>
<path style="fill:#816a6a; stroke:none;" d="M140 232L141 233L140 232z"/>
<path style="fill:#795f5f; stroke:none;" d="M88 233L89 234L88 233z"/>
<path style="fill:#b2a7a7; stroke:none;" d="M86 234L87 235L86 234z"/>
<path style="fill:#795f5f; stroke:none;" d="M87 234L77 255L78 255L87 234z"/>
<path style="fill:#b2a7a7; stroke:none;" d="M139 234L140 235L139 234z"/>
<path style="fill:#816a6a; stroke:none;" d="M87 235L88 236L87 235z"/>
<path style="fill:#b2a7a7; stroke:none;" d="M142 235L143 236L142 235z"/>
<path style="fill:#816a6a; stroke:none;" d="M85 236L86 237L85 236z"/>
<path style="fill:#978585; stroke:none;" d="M142.333 236.667L142.667 237.333L142.333 236.667M86 237L87 238L86 237z"/>
<path style="fill:#795f5f; stroke:none;" d="M142 238L142 242L143 242L142 238z"/>
<path style="fill:#978585; stroke:none;" d="M149 238L150 239L149 238z"/>
<path style="fill:#b2a7a7; stroke:none;" d="M85 239L86 240L85 239z"/>
<path style="fill:#795f5f; stroke:none;" d="M148 239L149 240L148 239z"/>
<path style="fill:#b2a7a7; stroke:none;" d="M144.667 240.333L145.333 240.667L144.667 240.333z"/>
<path style="fill:#978585; stroke:none;" d="M146 240L147 241L146 240z"/>
<path style="fill:#795f5f; stroke:none;" d="M147 240L148 241L147 240z"/>
<path style="fill:#b2a7a7; stroke:none;" d="M84 241L85 242L84 241z"/>
<path style="fill:#795f5f; stroke:none;" d="M107 242L108 243L107 242z"/>
<path style="fill:#816a6a; stroke:none;" d="M142 242L143 243L142 242z"/>
<path style="fill:#978585; stroke:none;" d="M107 243L108 244L107 243M142 243L143 244L142 243z"/>
<path style="fill:#816a6a; stroke:none;" d="M81 244L82 245L81 244z"/>
<path style="fill:#978585; stroke:none;" d="M96 244L97 245L96 244M103 244L102 246L103 244z"/>
<path style="fill:#b2a7a7; stroke:none;" d="M107.667 244.333L108.333 244.667L107.667 244.333z"/>
<path style="fill:#978585; stroke:none;" d="M141 244L142 245L141 244z"/>
<path style="fill:#795f5f; stroke:none;" d="M95.6667 245.333L96.3333 245.667L95.6667 245.333z"/>
<path style="fill:#816a6a; stroke:none;" d="M97 245L98 246L97 245z"/>
<path style="fill:#795f5f; stroke:none;" d="M103 245L104 246L103 245z"/>
<path style="fill:#b2a7a7; stroke:none;" d="M104 245L105 246L104 245z"/>
<path style="fill:#816a6a; stroke:none;" d="M141 245L142 246L141 245M80 246L81 247L80 246M107 246L108 247L107 246z"/>
<path style="fill:#795f5f; stroke:none;" d="M141 246L141 249L142 249L141 246z"/>
<path style="fill:#816a6a; stroke:none;" d="M79 248L80 249L79 248z"/>
<path style="fill:#b2a7a7; stroke:none;" d="M80 249L81 250L80 249z"/>
<path style="fill:#978585; stroke:none;" d="M140 249L141 250L140 249z"/>
<path style="fill:#816a6a; stroke:none;" d="M141 249L142 250L141 249z"/>
<path style="fill:#978585; stroke:none;" d="M78 250L79 251L78 250z"/>
<path style="fill:#816a6a; stroke:none;" d="M140 250L141 251L140 250z"/>
<path style="fill:#b2a7a7; stroke:none;" d="M79 251L80 252L79 251z"/>
<path style="fill:#795f5f; stroke:none;" d="M140.333 251.667L140.667 252.333L140.333 251.667z"/>
<path style="fill:#b2a7a7; stroke:none;" d="M77 252L78 253L77 252z"/>
<path style="fill:#978585; stroke:none;" d="M78 253L79 254L78 253M139 253L140 254L139 253z"/>
<path style="fill:#816a6a; stroke:none;" d="M140 253L141 254L140 253z"/>
<path style="fill:#795f5f; stroke:none;" d="M139 254L138 259L139 259L139 254z"/>
<path style="fill:#816a6a; stroke:none;" d="M76.6667 255.333L77.3333 255.667L76.6667 255.333z"/>
<path style="fill:#795f5f; stroke:none;" d="M76 256L75 260L76 260L76 256z"/>
<path style="fill:#b2a7a7; stroke:none;" d="M138 256L139 257L138 256M75 257L76 258L75 257z"/>
<path style="fill:#816a6a; stroke:none;" d="M93 257L94 258L93 257z"/>
<path style="fill:#b2a7a7; stroke:none;" d="M98 257L101 259L101 258L98 257z"/>
<path style="fill:#816a6a; stroke:none;" d="M107 257L108 258L107 257z"/>
<path style="fill:#b2a7a7; stroke:none;" d="M108 257L109 258L108 257M139 257L140 258L139 257M76 258L77 259L76 258z"/>
<path style="fill:#978585; stroke:none;" d="M92 258L93 259L92 258z"/>
<path style="fill:#795f5f; stroke:none;" d="M109 258L110 259L109 258z"/>
<path style="fill:#b2a7a7; stroke:none;" d="M110 258L111 259L110 258z"/>
<path style="fill:#978585; stroke:none;" d="M90 259L91 260L90 259z"/>
<path style="fill:#b2a7a7; stroke:none;" d="M91 259L92 260L91 259z"/>
<path style="fill:#795f5f; stroke:none;" d="M111 259L112 260L111 259z"/>
<path style="fill:#978585; stroke:none;" d="M112 259L113 260L112 259z"/>
<path style="fill:#b2a7a7; stroke:none;" d="M113 259L114 260L113 259z"/>
<path style="fill:#816a6a; stroke:none;" d="M137 259L137 261L139 259L137 259M74.6667 260.333L75.3333 260.667L74.6667 260.333z"/>
<path style="fill:#b2a7a7; stroke:none;" d="M88 260L89 261L88 260z"/>
<path style="fill:#795f5f; stroke:none;" d="M89 260L90 261L89 260z"/>
<path style="fill:#b2a7a7; stroke:none;" d="M71 261L72 262L71 261z"/>
<path style="fill:#795f5f; stroke:none;" d="M74.3333 261.667L74.6667 262.333L74.3333 261.667z"/>
<path style="fill:#b2a7a7; stroke:none;" d="M136 261L138 263L136 261z"/>
<path style="fill:#795f5f; stroke:none;" d="M137 261L138 262L137 261M136 262L134 267L135 267L136 262z"/>
<path style="fill:#816a6a; stroke:none;" d="M73 263L74 264L73 263z"/>
<path style="fill:#978585; stroke:none;" d="M74 263L75 264L74 263z"/>
<path style="fill:#816a6a; stroke:none;" d="M95 263L96 264L95 263z"/>
<path style="fill:#b2a7a7; stroke:none;" d="M96 263L97 264L96 263M102 263L103 264L102 263z"/>
<path style="fill:#816a6a; stroke:none;" d="M103.667 263.333L104.333 263.667L103.667 263.333z"/>
<path style="fill:#978585; stroke:none;" d="M135 263L136 264L135 263z"/>
<path style="fill:#795f5f; stroke:none;" d="M73 264L72 269L73 269L73 264z"/>
<path style="fill:#b2a7a7; stroke:none;" d="M98 264L99 265L98 264z"/>
<path style="fill:#978585; stroke:none;" d="M99 264L100 265L99 264z"/>
<path style="fill:#b2a7a7; stroke:none;" d="M100 264L101 265L100 264M136 264L137 265L136 264M72 265L73 266L72 265z"/>
<path style="fill:#816a6a; stroke:none;" d="M134 265L135 266L134 265z"/>
<path style="fill:#978585; stroke:none;" d="M73 266L74 267L73 266z"/>
<path style="fill:#b2a7a7; stroke:none;" d="M110 267L109 269L110 267z"/>
<path style="fill:#816a6a; stroke:none;" d="M133.667 267.333L134.333 267.667L133.667 267.333z"/>
<path style="fill:#978585; stroke:none;" d="M92 268L93 269L92 268M108 268L109 269L108 268M132 268L133 269L132 268z"/>
<path style="fill:#795f5f; stroke:none;" d="M133 268L134 269L133 268z"/>
<path style="fill:#978585; stroke:none;" d="M71 269L72 270L71 269z"/>
<path style="fill:#816a6a; stroke:none;" d="M72 269L73 270L72 269z"/>
<path style="fill:#b2a7a7; stroke:none;" d="M73 269L74 270L73 269z"/>
<path style="fill:#816a6a; stroke:none;" d="M94.6667 269.333L95.3333 269.667L94.6667 269.333z"/>
<path style="fill:#978585; stroke:none;" d="M96 269L97 270L96 269z"/>
<path style="fill:#b2a7a7; stroke:none;" d="M104 269L105 270L104 269z"/>
<path style="fill:#816a6a; stroke:none;" d="M105 269L106 270L105 269z"/>
<path style="fill:#795f5f; stroke:none;" d="M106 269L107 270L106 269z"/>
<path style="fill:#978585; stroke:none;" d="M107 269L108 270L107 269z"/>
<path style="fill:#795f5f; stroke:none;" d="M132 269L125 278L132 269M71 270L71 273L72 273L71 270M73 270L74 271L73 270z"/>
<path style="fill:#b2a7a7; stroke:none;" d="M97 270L98 271L97 270z"/>
<path style="fill:#816a6a; stroke:none;" d="M98 270L99 271L98 270z"/>
<path style="fill:#795f5f; stroke:none;" d="M99 270L99 271L103 271L99 270z"/>
<path style="fill:#978585; stroke:none;" d="M103 270L104 271L103 270z"/>
<path style="fill:#816a6a; stroke:none;" d="M132 270L133 271L132 270M73 271L74 272L73 271z"/>
<path style="fill:#b2a7a7; stroke:none;" d="M70 272L72 274L70 272z"/>
<path style="fill:#795f5f; stroke:none;" d="M74 272L75 273L74 272z"/>
<path style="fill:#978585; stroke:none;" d="M129 272L130 273L129 272z"/>
<path style="fill:#816a6a; stroke:none;" d="M70 273L71 274L70 273M74 273L75 274L74 273z"/>
<path style="fill:#b2a7a7; stroke:none;" d="M128 273L129 274L128 273z"/>
<path style="fill:#795f5f; stroke:none;" d="M70.3333 274.667L70.6667 275.333L70.3333 274.667M75 274L76 275L75 274z"/>
<path style="fill:#b2a7a7; stroke:none;" d="M127 274L128 275L127 274M75 275L76 276L75 275z"/>
<path style="fill:#978585; stroke:none;" d="M76 275L77 276L76 275z"/>
<path style="fill:#b2a7a7; stroke:none;" d="M126 275L127 276L126 275z"/>
<path style="fill:#816a6a; stroke:none;" d="M70 276L71 277L70 276z"/>
<path style="fill:#795f5f; stroke:none;" d="M76 276L77 277L76 276z"/>
<path style="fill:#978585; stroke:none;" d="M125 276L126 277L125 276M69 277L70 278L69 277z"/>
<path style="fill:#b2a7a7; stroke:none;" d="M70 277L71 278L70 277z"/>
<path style="fill:#795f5f; stroke:none;" d="M77 277L78 278L77 277z"/>
<path style="fill:#816a6a; stroke:none;" d="M124.333 277.667L124.667 278.333L124.333 277.667z"/>
<path style="fill:#b2a7a7; stroke:none;" d="M130 277L129 290L130 290L130 277z"/>
<path style="fill:#795f5f; stroke:none;" d="M69.3333 278.667L69.6667 279.333L69.3333 278.667M78 278L79 279L78 278M123 278L122 280L123 278M79 279L80 280L79 279z"/>
<path style="fill:#b2a7a7; stroke:none;" d="M123 279L124 280L123 279z"/>
<path style="fill:#978585; stroke:none;" d="M69 280L70 281L69 280z"/>
<path style="fill:#816a6a; stroke:none;" d="M80 280L81 281L80 280z"/>
<path style="fill:#b2a7a7; stroke:none;" d="M81.3333 280.667L81.6667 281.333L81.3333 280.667z"/>
<path style="fill:#816a6a; stroke:none;" d="M120 280L121 281L120 280z"/>
<path style="fill:#795f5f; stroke:none;" d="M121 280L122 281L121 280M69 281L70 282L69 281z"/>
<path style="fill:#816a6a; stroke:none;" d="M82 281L83 282L82 281z"/>
<path style="fill:#795f5f; stroke:none;" d="M119 281L120 282L119 281z"/>
<path style="fill:#978585; stroke:none;" d="M68.6667 282.333L69.3333 282.667L68.6667 282.333z"/>
<path style="fill:#816a6a; stroke:none;" d="M83 282L84 283L83 282z"/>
<path style="fill:#795f5f; stroke:none;" d="M117 282L118 283L117 282z"/>
<path style="fill:#b2a7a7; stroke:none;" d="M118 282L119 283L118 282z"/>
<path style="fill:#795f5f; stroke:none;" d="M68 283L68 288L69 288L68 283z"/>
<path style="fill:#816a6a; stroke:none;" d="M85 283L86 284L85 283z"/>
<path style="fill:#795f5f; stroke:none;" d="M115 283L116 284L115 283z"/>
<path style="fill:#b2a7a7; stroke:none;" d="M116 283L117 284L116 283z"/>
<path style="fill:#816a6a; stroke:none;" d="M87 284L88 285L87 284z"/>
<path style="fill:#978585; stroke:none;" d="M113 284L114 285L113 284z"/>
<path style="fill:#b2a7a7; stroke:none;" d="M114 284L115 285L114 284M165.667 284.333L166.333 284.667L165.667 284.333z"/>
<path style="fill:#978585; stroke:none;" d="M167 284L168 285L167 284z"/>
<path style="fill:#816a6a; stroke:none;" d="M168 284L169 285L168 284z"/>
<path style="fill:#795f5f; stroke:none;" d="M161 305C164.719 307.818 175.037 308.067 174.338 301.025C173.961 297.231 157.6 287.492 169.96 286.434C171.233 286.326 172.772 286.787 174 287C170.748 283.037 161.84 284.826 162.466 290.965C162.777 294.008 179.825 306.293 166.021 305.332C164.244 305.208 162.79 304.939 161 305z"/>
<path style="fill:#816a6a; stroke:none;" d="M170 284L171 285L170 284z"/>
<path style="fill:#978585; stroke:none;" d="M171 284L172 285L171 284z"/>
<path style="fill:#b2a7a7; stroke:none;" d="M172.667 284.333L173.333 284.667L172.667 284.333z"/>
<path style="fill:#816a6a; stroke:none;" d="M182 284L182 290L183 290L182 284z"/>
<path style="fill:#795f5f; stroke:none;" d="M183 284L183 308L194 307L194 306L185 306L185 284L183 284z"/>
<path style="fill:#b2a7a7; stroke:none;" d="M204 284L205 285L204 284z"/>
<path style="fill:#978585; stroke:none;" d="M205 284L206 285L205 284z"/>
<path style="fill:#816a6a; stroke:none;" d="M206 284L206 285L210 285L206 284z"/>
<path style="fill:#978585; stroke:none;" d="M210 284L211 285L210 284z"/>
<path style="fill:#b2a7a7; stroke:none;" d="M211 284L212 285L211 284M229.667 284.333L230.333 284.667L229.667 284.333z"/>
<path style="fill:#978585; stroke:none;" d="M231 284L232 285L231 284z"/>
<path style="fill:#816a6a; stroke:none;" d="M232 284L232 285L236 285L232 284z"/>
<path style="fill:#978585; stroke:none;" d="M236 284L237 285L236 284z"/>
<path style="fill:#b2a7a7; stroke:none;" d="M237 284L238 285L237 284M250.333 284.667L250.667 285.333L250.333 284.667z"/>
<path style="fill:#795f5f; stroke:none;" d="M251 284L251 308L253 308L253 284L251 284z"/>
<path style="fill:#978585; stroke:none;" d="M253 284L253 308L254 308L253 284M263 284L264 285L263 284z"/>
<path style="fill:#795f5f; stroke:none;" d="M267 308C259.21 296.224 258.057 296.008 266 284C253.515 290.321 254.695 302.214 267 308z"/>
<path style="fill:#b2a7a7; stroke:none;" d="M266 284L267 285L266 284z"/>
<path style="fill:#978585; stroke:none;" d="M270 284L271 285L270 284z"/>
<path style="fill:#795f5f; stroke:none;" d="M271 284L278 308L280 308L288 284L279 297L271 284z"/>
<path style="fill:#b2a7a7; stroke:none;" d="M273 284L274 285L273 284z"/>
<path style="fill:#978585; stroke:none;" d="M285 284L286 285L285 284z"/>
<path style="fill:#b2a7a7; stroke:none;" d="M288 284L289 285L288 284M294 284L294 289L295 289L294 284z"/>
<path style="fill:#795f5f; stroke:none;" d="M295 284L295 308L297 308L297 284L295 284z"/>
<path style="fill:#978585; stroke:none;" d="M297 284L297 308L298 308L297 284z"/>
<path style="fill:#b2a7a7; stroke:none;" d="M306 284L306 289L307 289L306 284z"/>
<path style="fill:#795f5f; stroke:none;" d="M307 284L307 308L320 308L320 306L309 306L309 297L318 297L318 295L309 295L309 286L320 286L320 284L307 284z"/>
<path style="fill:#b2a7a7; stroke:none;" d="M320 284L321 285L320 284M89.6667 285.333L90.3333 285.667L89.6667 285.333M110.667 285.333L111.333 285.667L110.667 285.333z"/>
<path style="fill:#978585; stroke:none;" d="M164 285L165 286L164 285z"/>
<path style="fill:#b2a7a7; stroke:none;" d="M174.333 285.667L174.667 286.333L174.333 285.667z"/>
<path style="fill:#978585; stroke:none;" d="M202 285L203 286L202 285z"/>
<path style="fill:#795f5f; stroke:none;" d="M203.044 286.028C191.818 292.015 200.137 313.452 212.892 305.856C223.743 299.394 215.589 279.337 203.044 286.028z"/>
<path style="fill:#978585; stroke:none;" d="M213 285L214 286L213 285M228 285L229 286L228 285z"/>
<path style="fill:#795f5f; stroke:none;" d="M229.105 285.742C218.115 290.406 224.709 312.486 237.906 306.333C249.436 300.957 242.414 280.095 229.105 285.742z"/>
<path style="fill:#b2a7a7; stroke:none;" d="M239 285L240 286L239 285M262 285L263 286L262 285z"/>
<path style="fill:#978585; stroke:none;" d="M265 285L266 286L265 285M273 285L274 286L273 285z"/>
<path style="fill:#816a6a; stroke:none;" d="M287 285L288 286L287 285M163 286L164 287L163 286M166 286L167 287L166 286z"/>
<path style="fill:#978585; stroke:none;" d="M167 286L168 287L167 286z"/>
<path style="fill:#b2a7a7; stroke:none;" d="M168.667 286.333L169.333 286.667L168.667 286.333z"/>
<path style="fill:#978585; stroke:none;" d="M170 286L171 287L170 286z"/>
<path style="fill:#816a6a; stroke:none;" d="M171 286L172 287L171 286M201 286L202 287L201 286z"/>
<path style="fill:#978585; stroke:none;" d="M205 286L206 287L205 286z"/>
<path style="fill:#b2a7a7; stroke:none;" d="M206 286L206 287L209 287L206 286z"/>
<path style="fill:#978585; stroke:none;" d="M209 286L210 287L209 286z"/>
<path style="fill:#816a6a; stroke:none;" d="M210 286L211 287L210 286M214 286L215 287L214 286z"/>
<path style="fill:#b2a7a7; stroke:none;" d="M226 286L227 287L226 286z"/>
<path style="fill:#978585; stroke:none;" d="M231 286L232 287L231 286z"/>
<path style="fill:#b2a7a7; stroke:none;" d="M232 286L232 287L235 287L232 286z"/>
<path style="fill:#978585; stroke:none;" d="M235 286L236 287L235 286z"/>
<path style="fill:#816a6a; stroke:none;" d="M236 286L237 287L236 286z"/>
<path style="fill:#978585; stroke:none;" d="M240 286L241 287L240 286z"/>
<path style="fill:#b2a7a7; stroke:none;" d="M261 286L262 287L261 286z"/>
<path style="fill:#978585; stroke:none;" d="M264 286L265 287L264 286M271 286L272 287L271 286z"/>
<path style="fill:#b2a7a7; stroke:none;" d="M274 286L275 287L274 286z"/>
<path style="fill:#978585; stroke:none;" d="M284 286L285 287L284 286z"/>
<path style="fill:#b2a7a7; stroke:none;" d="M287 286L288 287L287 286z"/>
<path style="fill:#816a6a; stroke:none;" d="M309 286L310 287L309 286z"/>
<path style="fill:#978585; stroke:none;" d="M310 286L310 287L320 287L310 286M162 287L163 288L162 287M165 287L166 288L165 287z"/>
<path style="fill:#b2a7a7; stroke:none;" d="M172 287L173 288L172 287z"/>
<path style="fill:#816a6a; stroke:none;" d="M173 287L174 288L173 287M200 287L201 288L200 287z"/>
<path style="fill:#978585; stroke:none;" d="M203 287L202 289L203 287z"/>
<path style="fill:#d9d9d9; stroke:none;" d="M204.228 288.029C196.774 292.538 202.099 309.863 211.721 303.821C219.088 299.195 213.622 282.345 204.228 288.029z"/>
<path style="fill:#b2a7a7; stroke:none;" d="M211 287L212 288L211 287z"/>
<path style="fill:#816a6a; stroke:none;" d="M212 287L213 288L212 287M215 287L216 288L215 287z"/>
<path style="fill:#b2a7a7; stroke:none;" d="M225 287L226 288L225 287M229 287L228 289L229 287z"/>
<path style="fill:#d9d9d9; stroke:none;" d="M230.147 288.029C222.819 292.301 227.475 309.301 236.867 303.971C244.861 299.434 239.759 282.425 230.147 288.029z"/>
<path style="fill:#b2a7a7; stroke:none;" d="M237 287L238 288L237 287z"/>
<path style="fill:#816a6a; stroke:none;" d="M238 287L239 288L238 287z"/>
<path style="fill:#978585; stroke:none;" d="M241 287L242 288L241 287z"/>
<path style="fill:#816a6a; stroke:none;" d="M261 287L262 288L261 287M263 287L264 288L263 287z"/>
<path style="fill:#978585; stroke:none;" d="M274 287L275 288L274 287M286 287L287 288L286 287M309 287L309 294L310 294L309 287z"/>
<path style="fill:#816a6a; stroke:none;" d="M68.3333 288.667L68.6667 289.333L68.3333 288.667z"/>
<path style="fill:#978585; stroke:none;" d="M130 288L131 289L130 288z"/>
<path style="fill:#816a6a; stroke:none;" d="M164 288L165 289L164 288z"/>
<path style="fill:#978585; stroke:none;" d="M199 288L200 289L199 288z"/>
<path style="fill:#816a6a; stroke:none;" d="M213 288L214 289L213 288z"/>
<path style="fill:#978585; stroke:none;" d="M216 288L217 289L216 288z"/>
<path style="fill:#816a6a; stroke:none;" d="M225 288L226 289L225 288M239 288L240 289L239 288z"/>
<path style="fill:#b2a7a7; stroke:none;" d="M242 288L243 289L242 288z"/>
<path style="fill:#816a6a; stroke:none;" d="M260 288L261 289L260 288M262 288L263 289L262 288z"/>
<path style="fill:#978585; stroke:none;" d="M272 288L273 289L272 288z"/>
<path style="fill:#b2a7a7; stroke:none;" d="M275 288L276 289L275 288z"/>
<path style="fill:#978585; stroke:none;" d="M283 288L284 289L283 288z"/>
<path style="fill:#b2a7a7; stroke:none;" d="M67 289L68 290L67 289z"/>
<path style="fill:#816a6a; stroke:none;" d="M130.333 289.667L130.667 290.333L130.333 289.667z"/>
<path style="fill:#b2a7a7; stroke:none;" d="M161 289L161 292L162 292L161 289M164.333 289.667L164.667 290.333L164.333 289.667M198 289L199 290L198 289z"/>
<path style="fill:#816a6a; stroke:none;" d="M201 289L202 290L201 289z"/>
<path style="fill:#b2a7a7; stroke:none;" d="M224 289L225 290L224 289z"/>
<path style="fill:#978585; stroke:none;" d="M227 289L228 290L227 289z"/>
<path style="fill:#b2a7a7; stroke:none;" d="M239 289L240 290L239 289z"/>
<path style="fill:#816a6a; stroke:none;" d="M242 289L243 290L242 289z"/>
<path style="fill:#978585; stroke:none;" d="M259 289L260 290L259 289z"/>
<path style="fill:#b2a7a7; stroke:none;" d="M262 289L263 290L262 289M272 289L273 290L272 289z"/>
<path style="fill:#978585; stroke:none;" d="M275 289L276 290L275 289M285 289L286 290L285 289M67 290L67 293L68 293L69 290L67 290M182 290L182 305L183 305L182 290M198 290L199 291L198 290z"/>
<path style="fill:#b2a7a7; stroke:none;" d="M201 290L202 291L201 290z"/>
<path style="fill:#978585; stroke:none;" d="M214 290L215 291L214 290z"/>
<path style="fill:#b2a7a7; stroke:none;" d="M217 290L218 291L217 290z"/>
<path style="fill:#816a6a; stroke:none;" d="M224 290L225 291L224 290M240 290L241 291L240 290z"/>
<path style="fill:#b2a7a7; stroke:none;" d="M243.333 290.667L243.667 291.333L243.333 290.667z"/>
<path style="fill:#978585; stroke:none;" d="M258 290L259 291L258 290z"/>
<path style="fill:#b2a7a7; stroke:none;" d="M261 290L262 291L261 290z"/>
<path style="fill:#978585; stroke:none;" d="M273 290L274 291L273 290z"/>
<path style="fill:#b2a7a7; stroke:none;" d="M276 290L277 291L276 290z"/>
<path style="fill:#978585; stroke:none;" d="M282 290L283 291L282 290z"/>
<path style="fill:#b2a7a7; stroke:none;" d="M68 291L69 292L68 291z"/>
<path style="fill:#795f5f; stroke:none;" d="M130 291L130 295L131 295L130 291z"/>
<path style="fill:#978585; stroke:none;" d="M164 291L165 292L164 291z"/>
<path style="fill:#b2a7a7; stroke:none;" d="M214 291L215 292L214 291z"/>
<path style="fill:#816a6a; stroke:none;" d="M217 291L218 292L217 291z"/>
<path style="fill:#b2a7a7; stroke:none;" d="M223.333 291.667L223.667 292.333L223.333 291.667z"/>
<path style="fill:#978585; stroke:none;" d="M226 291L227 292L226 291M240 291L241 292L240 291M257 291L258 292L257 291z"/>
<path style="fill:#b2a7a7; stroke:none;" d="M260 291L261 292L260 291M273 291L274 292L273 291z"/>
<path style="fill:#978585; stroke:none;" d="M276 291L277 292L276 291z"/>
<path style="fill:#b2a7a7; stroke:none;" d="M281 291L282 292L281 291z"/>
<path style="fill:#978585; stroke:none;" d="M284 291L285 292L284 291z"/>
<path style="fill:#b2a7a7; stroke:none;" d="M165 292L166 293L165 292z"/>
<path style="fill:#978585; stroke:none;" d="M200.333 292.667L200.667 293.333L200.333 292.667z"/>
<path style="fill:#b2a7a7; stroke:none;" d="M226 292L226 295L227 295L226 292M240 292L241 293L240 292z"/>
<path style="fill:#978585; stroke:none;" d="M243 292L244 293L243 292z"/>
<path style="fill:#b2a7a7; stroke:none;" d="M256 292L257 293L256 292z"/>
<path style="fill:#978585; stroke:none;" d="M259 292L260 293L259 292M274 292L275 293L274 292M281 292L282 293L281 292z"/>
<path style="fill:#816a6a; stroke:none;" d="M67 293L67 302L68 302L67 293z"/>
<path style="fill:#978585; stroke:none;" d="M162 293L163 294L162 293M166 293L167 294L166 293z"/>
<path style="fill:#b2a7a7; stroke:none;" d="M197 293L197 300L198 300L197 293z"/>
<path style="fill:#816a6a; stroke:none;" d="M215.333 293.667L215.667 294.333L215.333 293.667z"/>
<path style="fill:#978585; stroke:none;" d="M223 293L223 299L224 299L223 293z"/>
<path style="fill:#816a6a; stroke:none;" d="M243 293L244 294L243 293z"/>
<path style="fill:#b2a7a7; stroke:none;" d="M255 293L256 294L255 293z"/>
<path style="fill:#978585; stroke:none;" d="M258 293L259 294L258 293z"/>
<path style="fill:#b2a7a7; stroke:none;" d="M274 293L275 294L274 293z"/>
<path style="fill:#978585; stroke:none;" d="M277 293L278 294L277 293z"/>
<path style="fill:#b2a7a7; stroke:none;" d="M280 293L281 294L280 293M283 293L284 294L283 293z"/>
<path style="fill:#978585; stroke:none;" d="M163 294L164 295L163 294M168 294L169 295L168 294z"/>
<path style="fill:#b2a7a7; stroke:none;" d="M200 294L200 298L201 298L200 294M218.333 294.667L218.667 295.333L218.333 294.667M254 294L255 295L254 294z"/>
<path style="fill:#816a6a; stroke:none;" d="M257 294L258 295L257 294z"/>
<path style="fill:#978585; stroke:none;" d="M275 294L276 295L275 294z"/>
<path style="fill:#816a6a; stroke:none;" d="M280 294L281 295L280 294M282 294L283 295L282 294M309 294L310 295L309 294z"/>
<path style="fill:#b2a7a7; stroke:none;" d="M310 294L310 295L318 295L310 294z"/>
<path style="fill:#816a6a; stroke:none;" d="M130 295L131 296L130 295z"/>
<path style="fill:#b2a7a7; stroke:none;" d="M164 295L165 296L164 295z"/>
<path style="fill:#816a6a; stroke:none;" d="M165 295L166 296L165 295z"/>
<path style="fill:#978585; stroke:none;" d="M170 295L171 296L170 295M215.333 295.667L215.667 296.333L215.333 295.667z"/>
<path style="fill:#b2a7a7; stroke:none;" d="M257 295L258 296L257 295M275 295L276 296L275 295z"/>
<path style="fill:#978585; stroke:none;" d="M278 295L279 296L278 295z"/>
<path style="fill:#b2a7a7; stroke:none;" d="M279 295L280 296L279 295M282 295L283 296L282 295z"/>
<path style="fill:#978585; stroke:none;" d="M130 296L131 297L130 296z"/>
<path style="fill:#b2a7a7; stroke:none;" d="M131 296L132 297L131 296M166 296L167 297L166 296z"/>
<path style="fill:#816a6a; stroke:none;" d="M171 296L172 297L171 296z"/>
<path style="fill:#b2a7a7; stroke:none;" d="M172 296L173 297L172 296M226 296L226 300L227 300L226 296z"/>
<path style="fill:#816a6a; stroke:none;" d="M255 296L256 297L255 296z"/>
<path style="fill:#b2a7a7; stroke:none;" d="M258 296L259 297L258 296z"/>
<path style="fill:#978585; stroke:none;" d="M276 296L277 297L276 296z"/>
<path style="fill:#816a6a; stroke:none;" d="M279 296L280 297L279 296M281 296L282 297L281 296M131 297L132 298L131 297z"/>
<path style="fill:#b2a7a7; stroke:none;" d="M168 297L169 298L168 297z"/>
<path style="fill:#978585; stroke:none;" d="M173 297L174 298L173 297z"/>
<path style="fill:#816a6a; stroke:none;" d="M215.333 297.667L215.667 298.333L215.333 297.667M243 297L244 298L243 297z"/>
<path style="fill:#b2a7a7; stroke:none;" d="M255 297L256 298L255 297z"/>
<path style="fill:#816a6a; stroke:none;" d="M258 297L259 298L258 297z"/>
<path style="fill:#b2a7a7; stroke:none;" d="M276 297L277 298L276 297M281 297L282 298L281 297z"/>
<path style="fill:#978585; stroke:none;" d="M309 297L309 305L310 305L309 297z"/>
<path style="fill:#795f5f; stroke:none;" d="M131.333 298.667L131.667 299.333L131.333 298.667z"/>
<path style="fill:#978585; stroke:none;" d="M170 298L171 299L170 298z"/>
<path style="fill:#b2a7a7; stroke:none;" d="M174 298L175 299L174 298z"/>
<path style="fill:#978585; stroke:none;" d="M200.333 298.667L200.667 299.333L200.333 298.667M243.333 298.667L243.667 299.333L243.333 298.667z"/>
<path style="fill:#b2a7a7; stroke:none;" d="M256 298L257 299L256 298z"/>
<path style="fill:#816a6a; stroke:none;" d="M259 298L260 299L259 298z"/>
<path style="fill:#978585; stroke:none;" d="M277 298L278 299L277 298z"/>
<path style="fill:#816a6a; stroke:none;" d="M280 298L281 299L280 298z"/>
<path style="fill:#b2a7a7; stroke:none;" d="M171 299L172 300L171 299z"/>
<path style="fill:#816a6a; stroke:none;" d="M174 299L175 300L174 299M217 299L218 300L217 299z"/>
<path style="fill:#b2a7a7; stroke:none;" d="M223.333 299.667L223.667 300.333L223.333 299.667M240 299L241 300L240 299z"/>
<path style="fill:#978585; stroke:none;" d="M257 299L258 300L257 299M260 299L261 300L260 299z"/>
<path style="fill:#b2a7a7; stroke:none;" d="M277 299L277 308L278 308L277 299M280 299L280 308L281 308L280 299M68.3333 300.667L68.6667 301.333L68.3333 300.667z"/>
<path style="fill:#816a6a; stroke:none;" d="M131 300L132 301L131 300M172 300L173 301L172 300z"/>
<path style="fill:#b2a7a7; stroke:none;" d="M214 300L215 301L214 300z"/>
<path style="fill:#978585; stroke:none;" d="M217 300L218 301L217 300M226 300L227 301L226 300M240 300L241 301L240 300z"/>
<path style="fill:#b2a7a7; stroke:none;" d="M243 300L244 301L243 300z"/>
<path style="fill:#816a6a; stroke:none;" d="M258 300L259 301L258 300z"/>
<path style="fill:#b2a7a7; stroke:none;" d="M261 300L262 301L261 300z"/>
<path style="fill:#816a6a; stroke:none;" d="M132 301L133 302L132 301z"/>
<path style="fill:#978585; stroke:none;" d="M172 301L173 302L172 301M198 301L199 302L198 301z"/>
<path style="fill:#b2a7a7; stroke:none;" d="M201 301L202 302L201 301z"/>
<path style="fill:#978585; stroke:none;" d="M214 301L215 302L214 301z"/>
<path style="fill:#b2a7a7; stroke:none;" d="M217 301L218 302L217 301z"/>
<path style="fill:#816a6a; stroke:none;" d="M240 301L241 302L240 301M259 301L260 302L259 301z"/>
<path style="fill:#b2a7a7; stroke:none;" d="M262 301L263 302L262 301z"/>
<path style="fill:#978585; stroke:none;" d="M67 302L67 304L69 302L67 302z"/>
<path style="fill:#795f5f; stroke:none;" d="M132 302L133 303L132 302z"/>
<path style="fill:#816a6a; stroke:none;" d="M172 302L173 303L172 302z"/>
<path style="fill:#b2a7a7; stroke:none;" d="M198 302L199 303L198 302z"/>
<path style="fill:#816a6a; stroke:none;" d="M201 302L202 303L201 302M216 302L217 303L216 302z"/>
<path style="fill:#978585; stroke:none;" d="M224 302L225 303L224 302M227 302L228 303L227 302z"/>
<path style="fill:#b2a7a7; stroke:none;" d="M239 302L237 305L239 302z"/>
<path style="fill:#978585; stroke:none;" d="M242 302L243 303L242 302z"/>
<path style="fill:#b2a7a7; stroke:none;" d="M259 302L260 303L259 302M263 302L264 303L263 302z"/>
<path style="fill:#816a6a; stroke:none;" d="M68.3333 303.667L68.6667 304.333L68.3333 303.667M132 303L133 304L132 303z"/>
<path style="fill:#978585; stroke:none;" d="M161 303L162 304L161 303z"/>
<path style="fill:#b2a7a7; stroke:none;" d="M171 303L170 305L171 303z"/>
<path style="fill:#978585; stroke:none;" d="M174 303L175 304L174 303z"/>
<path style="fill:#816a6a; stroke:none;" d="M199 303L200 304L199 303z"/>
<path style="fill:#b2a7a7; stroke:none;" d="M202 303L203 304L202 303z"/>
<path style="fill:#816a6a; stroke:none;" d="M213 303L214 304L213 303z"/>
<path style="fill:#b2a7a7; stroke:none;" d="M216 303L217 304L216 303M228 303L229 304L228 303z"/>
<path style="fill:#816a6a; stroke:none;" d="M239 303L240 304L239 303M241 303L242 304L241 303z"/>
<path style="fill:#b2a7a7; stroke:none;" d="M260 303L261 304L260 303z"/>
<path style="fill:#816a6a; stroke:none;" d="M263 303L264 304L263 303z"/>
<path style="fill:#b2a7a7; stroke:none;" d="M67 304L68 305L67 304z"/>
<path style="fill:#795f5f; stroke:none;" d="M133.333 304.667L133.667 305.333L133.333 304.667z"/>
<path style="fill:#816a6a; stroke:none;" d="M161 304L162 305L161 304z"/>
<path style="fill:#b2a7a7; stroke:none;" d="M163 304L164 305L163 304z"/>
<path style="fill:#816a6a; stroke:none;" d="M171 304L172 305L171 304z"/>
<path style="fill:#b2a7a7; stroke:none;" d="M174 304L175 305L174 304M199 304L200 305L199 304z"/>
<path style="fill:#978585; stroke:none;" d="M203 304L204 305L203 304z"/>
<path style="fill:#b2a7a7; stroke:none;" d="M211 304L212 305L211 304z"/>
<path style="fill:#816a6a; stroke:none;" d="M212 304L213 305L212 304z"/>
<path style="fill:#978585; stroke:none;" d="M215 304L216 305L215 304z"/>
<path style="fill:#b2a7a7; stroke:none;" d="M225 304L226 305L225 304M229 304L230 305L229 304z"/>
<path style="fill:#816a6a; stroke:none;" d="M238 304L239 305L238 304z"/>
<path style="fill:#b2a7a7; stroke:none;" d="M241 304L242 305L241 304z"/>
<path style="fill:#978585; stroke:none;" d="M261 304L262 305L261 304z"/>
<path style="fill:#816a6a; stroke:none;" d="M264 304L265 305L264 304z"/>
<path style="fill:#795f5f; stroke:none;" d="M68 305L73 323L74 323L68 305z"/>
<path style="fill:#978585; stroke:none;" d="M165 305L166 306L165 305z"/>
<path style="fill:#b2a7a7; stroke:none;" d="M166 305L166 306L169 306L166 305z"/>
<path style="fill:#978585; stroke:none;" d="M169 305L170 306L169 305z"/>
<path style="fill:#b2a7a7; stroke:none;" d="M173 305L174 306L173 305z"/>
<path style="fill:#816a6a; stroke:none;" d="M182 305L182 308L183 308L182 305z"/>
<path style="fill:#b2a7a7; stroke:none;" d="M185 305L185 306L194 306L185 305M200 305L201 306L200 305z"/>
<path style="fill:#816a6a; stroke:none;" d="M204 305L205 306L204 305z"/>
<path style="fill:#978585; stroke:none;" d="M205 305L206 306L205 305z"/>
<path style="fill:#b2a7a7; stroke:none;" d="M206 305L206 306L210 306L206 305z"/>
<path style="fill:#978585; stroke:none;" d="M210 305L211 306L210 305M214 305L215 306L214 305z"/>
<path style="fill:#b2a7a7; stroke:none;" d="M226 305L227 306L226 305z"/>
<path style="fill:#816a6a; stroke:none;" d="M230 305L231 306L230 305z"/>
<path style="fill:#978585; stroke:none;" d="M231 305L232 306L231 305z"/>
<path style="fill:#b2a7a7; stroke:none;" d="M232 305L232 306L235 306L232 305z"/>
<path style="fill:#978585; stroke:none;" d="M235 305L236 306L235 305z"/>
<path style="fill:#816a6a; stroke:none;" d="M236 305L237 306L236 305z"/>
<path style="fill:#b2a7a7; stroke:none;" d="M240 305L241 306L240 305z"/>
<path style="fill:#978585; stroke:none;" d="M262 305L263 306L262 305z"/>
<path style="fill:#816a6a; stroke:none;" d="M265 305L266 306L265 305M309 305L310 306L309 305z"/>
<path style="fill:#b2a7a7; stroke:none;" d="M310 305L310 306L320 306L310 305M133 306L134 307L133 306z"/>
<path style="fill:#978585; stroke:none;" d="M161 306L162 307L161 306z"/>
<path style="fill:#816a6a; stroke:none;" d="M171 306L172 307L171 306z"/>
<path style="fill:#b2a7a7; stroke:none;" d="M172 306L173 307L172 306M201 306L202 307L201 306z"/>
<path style="fill:#978585; stroke:none;" d="M202 306L203 307L202 306z"/>
<path style="fill:#816a6a; stroke:none;" d="M212 306L213 307L212 306z"/>
<path style="fill:#b2a7a7; stroke:none;" d="M213 306L214 307L213 306M227 306L228 307L227 306z"/>
<path style="fill:#816a6a; stroke:none;" d="M228 306L229 307L228 306z"/>
<path style="fill:#978585; stroke:none;" d="M238 306L239 307L238 306z"/>
<path style="fill:#b2a7a7; stroke:none;" d="M239 306L240 307L239 306M250.333 306.667L250.667 307.333L250.333 306.667z"/>
<path style="fill:#816a6a; stroke:none;" d="M263 306L264 307L263 306z"/>
<path style="fill:#978585; stroke:none;" d="M266 306L267 307L266 306z"/>
<path style="fill:#b2a7a7; stroke:none;" d="M294.333 306.667L294.667 307.333L294.333 306.667M306.333 306.667L306.667 307.333L306.333 306.667M320 306L321 307L320 306z"/>
<path style="fill:#795f5f; stroke:none;" d="M134 307L135 308L134 307z"/>
<path style="fill:#b2a7a7; stroke:none;" d="M163 307L164 308L163 307z"/>
<path style="fill:#978585; stroke:none;" d="M164 307L165 308L164 307z"/>
<path style="fill:#816a6a; stroke:none;" d="M165 307L165 308L169 308L165 307z"/>
<path style="fill:#978585; stroke:none;" d="M169 307L170 308L169 307z"/>
<path style="fill:#b2a7a7; stroke:none;" d="M170 307L171 308L170 307z"/>
<path style="fill:#816a6a; stroke:none;" d="M193 307L194 308L193 307z"/>
<path style="fill:#b2a7a7; stroke:none;" d="M203 307L204 308L203 307z"/>
<path style="fill:#978585; stroke:none;" d="M204.667 307.333L205.333 307.667L204.667 307.333z"/>
<path style="fill:#816a6a; stroke:none;" d="M206 307L207 308L206 307M208.667 307.333L209.333 307.667L208.667 307.333z"/>
<path style="fill:#978585; stroke:none;" d="M210 307L211 308L210 307z"/>
<path style="fill:#b2a7a7; stroke:none;" d="M211 307L212 308L211 307M229 307L230 308L229 307z"/>
<path style="fill:#978585; stroke:none;" d="M230 307L231 308L230 307z"/>
<path style="fill:#816a6a; stroke:none;" d="M231.667 307.333L232.333 307.667L231.667 307.333M234 307L235 308L234 307z"/>
<path style="fill:#978585; stroke:none;" d="M235 307L236 308L235 307z"/>
<path style="fill:#b2a7a7; stroke:none;" d="M236.667 307.333L237.333 307.667L236.667 307.333z"/>
<path style="fill:#816a6a; stroke:none;" d="M264 307L265 308L264 307z"/>
<path style="fill:#b2a7a7; stroke:none;" d="M267 307L268 308L267 307M69 308L70 309L69 308M134 308L135 309L134 308z"/>
<path style="fill:#978585; stroke:none;" d="M69 309L70 310L69 309z"/>
<path style="fill:#795f5f; stroke:none;" d="M135 309L136 310L135 309z"/>
<path style="fill:#978585; stroke:none;" d="M68 310L69 311L68 310z"/>
<path style="fill:#b2a7a7; stroke:none;" d="M136 310L137 311L136 310z"/>
<path style="fill:#978585; stroke:none;" d="M136 311L137 312L136 311z"/>
<path style="fill:#816a6a; stroke:none;" d="M137 312L138 313L137 312M70 313L71 314L70 313z"/>
<path style="fill:#b2a7a7; stroke:none;" d="M138 313L139 314L138 313z"/>
<path style="fill:#978585; stroke:none;" d="M69 314L70 315L69 314z"/>
<path style="fill:#816a6a; stroke:none;" d="M71 316L72 317L71 316z"/>
<path style="fill:#978585; stroke:none;" d="M70 317L71 318L70 317z"/>
<path style="fill:#b2a7a7; stroke:none;" d="M72 318L73 319L72 318z"/>
<path style="fill:#816a6a; stroke:none;" d="M71 319L72 320L71 319z"/>
<path style="fill:#b2a7a7; stroke:none;" d="M74 322L75 323L74 322z"/>
<path style="fill:#978585; stroke:none;" d="M73 323L77 327L73 323z"/>
<path style="fill:#816a6a; stroke:none;" d="M74 323L75 324L74 323M75 324L76 325L75 324z"/>
<path style="fill:#795f5f; stroke:none;" d="M74 325L75 326L74 325M75 326L76 327L75 326M76 327L86 337L76 327z"/>
<path style="fill:#b2a7a7; stroke:none;" d="M77 327L78 328L77 327z"/>
<path style="fill:#978585; stroke:none;" d="M76 328L77 329L76 328z"/>
<path style="fill:#b2a7a7; stroke:none;" d="M78 328L79 329L78 328z"/>
<path style="fill:#978585; stroke:none;" d="M130 331L130 345L131 345C132.275 340.617 132.851 334.758 130 331z"/>
<path style="fill:#795f5f; stroke:none;" d="M131 331L131 332L134 332L131 331z"/>
<path style="fill:#816a6a; stroke:none;" d="M134 331L135 332L134 331z"/>
<path style="fill:#978585; stroke:none;" d="M135 331L137 334L135 331z"/>
<path style="fill:#b2a7a7; stroke:none;" d="M136 331L138 333L136 331M153 331L153 345L154 345L153 331z"/>
<path style="fill:#795f5f; stroke:none;" d="M154 331L154 332L161 332L154 331z"/>
<path style="fill:#b2a7a7; stroke:none;" d="M161 331L162 332L161 331z"/>
<path style="fill:#978585; stroke:none;" d="M181 331L182 332L181 331z"/>
<path style="fill:#b2a7a7; stroke:none;" d="M201 331L201 342L202 342L201 331z"/>
<path style="fill:#978585; stroke:none;" d="M202 331L202 340L203 340L202 331z"/>
<path style="fill:#816a6a; stroke:none;" d="M210 331L210 341L211 341L210 331z"/>
<path style="fill:#b2a7a7; stroke:none;" d="M211 331L211 342L212 342L211 331M225 331L225 332L229 333L229 332L225 331z"/>
<path style="fill:#795f5f; stroke:none;" d="M226 331L226 332L229 332L229 345L230 345C230 340.43 228.776 334.739 233 332L226 331z"/>
<path style="fill:#b2a7a7; stroke:none;" d="M233 331L234 332L233 331z"/>
<path style="fill:#816a6a; stroke:none;" d="M247 331L248 332L247 331z"/>
<path style="fill:#978585; stroke:none;" d="M248 331L249 332L248 331M256 331L257 332L256 331z"/>
<path style="fill:#816a6a; stroke:none;" d="M257 331L258 332L257 331z"/>
<path style="fill:#b2a7a7; stroke:none;" d="M292 331L292 332L299 333L299 332L292 331z"/>
<path style="fill:#816a6a; stroke:none;" d="M293 331L293 332L296 332L293 331z"/>
<path style="fill:#978585; stroke:none;" d="M296 331L297 332L296 331z"/>
<path style="fill:#b2a7a7; stroke:none;" d="M318.667 331.333L319.333 331.667L318.667 331.333z"/>
<path style="fill:#978585; stroke:none;" d="M339 331L339 345L340 345L341 331L339 331z"/>
<path style="fill:#b2a7a7; stroke:none;" d="M363 331L364 332L363 331z"/>
<path style="fill:#978585; stroke:none;" d="M364.333 331.667L364.667 332.333L364.333 331.667z"/>
<path style="fill:#816a6a; stroke:none;" d="M365.667 331.333L366.333 331.667L365.667 331.333z"/>
<path style="fill:#978585; stroke:none;" d="M367.333 331.667L367.667 332.333L367.333 331.667z"/>
<path style="fill:#b2a7a7; stroke:none;" d="M368 331L369 332L368 331z"/>
<path style="fill:#816a6a; stroke:none;" d="M388 331L389 332L388 331z"/>
<path style="fill:#b2a7a7; stroke:none;" d="M395 331L395 341L396 341L395 331z"/>
<path style="fill:#816a6a; stroke:none;" d="M396 331L396 345L397 345L396 331z"/>
<path style="fill:#b2a7a7; stroke:none;" d="M132 332L132 333L135 333L132 332z"/>
<path style="fill:#795f5f; stroke:none;" d="M136 332L137 333L136 332z"/>
<path style="fill:#816a6a; stroke:none;" d="M154 332L154 338L155 338L154 332z"/>
<path style="fill:#b2a7a7; stroke:none;" d="M155 332L155 333L161 333L155 332z"/>
<path style="fill:#795f5f; stroke:none;" d="M181 332L182 333L181 332z"/>
<path style="fill:#b2a7a7; stroke:none;" d="M182 332L183 333L182 332M230 332L230 345L231 345L233 333L230 332M247 332L247 333L250 333L250 332L247 332z"/>
<path style="fill:#795f5f; stroke:none;" d="M248 332L249 333L248 332z"/>
<path style="fill:#b2a7a7; stroke:none;" d="M255 332L255 333L258 333L258 332L255 332z"/>
<path style="fill:#795f5f; stroke:none;" d="M256 332L257 333L256 332z"/>
<path style="fill:#816a6a; stroke:none;" d="M291 332L292 333L291 332z"/>
<path style="fill:#978585; stroke:none;" d="M292 332L293 333L292 332z"/>
<path style="fill:#795f5f; stroke:none;" d="M297 332L298 333L297 332z"/>
<path style="fill:#978585; stroke:none;" d="M318 332L319 333L318 332z"/>
<path style="fill:#816a6a; stroke:none;" d="M319.333 332.667L319.667 333.333L319.333 332.667z"/>
<path style="fill:#978585; stroke:none;" d="M362 332L360 334L360 335L362 332z"/>
<path style="fill:#816a6a; stroke:none;" d="M363 332L364 333L363 332z"/>
<path style="fill:#b2a7a7; stroke:none;" d="M365.667 332.333L366.333 332.667L365.667 332.333z"/>
<path style="fill:#816a6a; stroke:none;" d="M368.667 332.333L369.333 332.667L368.667 332.333z"/>
<path style="fill:#b2a7a7; stroke:none;" d="M370 332L372 334L370 332z"/>
<path style="fill:#795f5f; stroke:none;" d="M388 332L388 345L389 345L388 332z"/>
<path style="fill:#b2a7a7; stroke:none;" d="M389 332L390 333L389 332z"/>
<path style="fill:#d9d9d9; stroke:none;" d="M132 333L132 337L136 333L132 333z"/>
<path style="fill:#816a6a; stroke:none;" d="M137 333L138 334L137 333z"/>
<path style="fill:#978585; stroke:none;" d="M180 333L181 334L180 333z"/>
<path style="fill:#816a6a; stroke:none;" d="M181 333L179 337L180 337L183 334L181 333z"/>
<path style="fill:#795f5f; stroke:none;" d="M249 333L250 334L249 333M255 333L256 334L255 333z"/>
<path style="fill:#978585; stroke:none;" d="M290 333L290 336L291 336L292 333L290 333z"/>
<path style="fill:#816a6a; stroke:none;" d="M298 333L299 334L298 333z"/>
<path style="fill:#795f5f; stroke:none;" d="M318 333L319 334L318 333z"/>
<path style="fill:#b2a7a7; stroke:none;" d="M320 333L317 334L317 335L319 336L320 333z"/>
<path style="fill:#816a6a; stroke:none;" d="M361 333L362 334L361 333z"/>
<path style="fill:#d9d9d9; stroke:none;" d="M363.318 334.032C358.207 337.332 363.49 345.32 368.682 341.968C373.793 338.668 368.51 330.68 363.318 334.032z"/>
<path style="fill:#978585; stroke:none;" d="M369 333L371 335L369 333z"/>
<path style="fill:#795f5f; stroke:none;" d="M370 333L371 334L370 333z"/>
<path style="fill:#b2a7a7; stroke:none;" d="M390 333L391 334L390 333z"/>
<path style="fill:#816a6a; stroke:none;" d="M82 334L83 335L82 334z"/>
<path style="fill:#b2a7a7; stroke:none;" d="M136 334L135 337L138 337L136 334z"/>
<path style="fill:#795f5f; stroke:none;" d="M137 334L138 335L137 334z"/>
<path style="fill:#b2a7a7; stroke:none;" d="M181 334L182 335L181 334z"/>
<path style="fill:#795f5f; stroke:none;" d="M182 334L183 335L182 334z"/>
<path style="fill:#b2a7a7; stroke:none;" d="M183 334L184 335L183 334z"/>
<path style="fill:#816a6a; stroke:none;" d="M249 334L250 335L249 334z"/>
<path style="fill:#978585; stroke:none;" d="M250 334L251 335L250 334M254 334L255 335L254 334z"/>
<path style="fill:#816a6a; stroke:none;" d="M255 334L256 335L255 334M290 334L291 335L290 334z"/>
<path style="fill:#978585; stroke:none;" d="M318 334L319 335L318 334M320 334L321 335L320 334z"/>
<path style="fill:#816a6a; stroke:none;" d="M371.333 334.667L371.667 335.333L371.333 334.667M389 334L391 336L391 334L389 334z"/>
<path style="fill:#978585; stroke:none;" d="M83 335L84 336L83 335z"/>
<path style="fill:#b2a7a7; stroke:none;" d="M85 335L86 336L85 335z"/>
<path style="fill:#816a6a; stroke:none;" d="M137 335L138 336L137 335z"/>
<path style="fill:#b2a7a7; stroke:none;" d="M179 335L180 336L179 335z"/>
<path style="fill:#d9d9d9; stroke:none;" d="M181 335L180 340L184 340L181 335z"/>
<path style="fill:#978585; stroke:none;" d="M182.667 335.333L183.333 335.667L182.667 335.333z"/>
<path style="fill:#795f5f; stroke:none;" d="M250 335L252 345L253 345L255 335L253 337L252 337L250 335z"/>
<path style="fill:#b2a7a7; stroke:none;" d="M251 335L252 336L251 335M253 335L254 336L253 335z"/>
<path style="fill:#816a6a; stroke:none;" d="M291 335L293 337L291 335M317.333 335.667L317.667 336.333L317.333 335.667z"/>
<path style="fill:#d9d9d9; stroke:none;" d="M319 335L317 340L321 340L319 335z"/>
<path style="fill:#795f5f; stroke:none;" d="M320 335L321 336L320 335z"/>
<path style="fill:#b2a7a7; stroke:none;" d="M359 335L360 336L359 335z"/>
<path style="fill:#795f5f; stroke:none;" d="M360 335L361 336L360 335z"/>
<path style="fill:#b2a7a7; stroke:none;" d="M372 335L373 336L372 335M389 335L389 345L390 345L389 335z"/>
<path style="fill:#978585; stroke:none;" d="M391 335L392 336L391 335M86 336L89 339L86 336z"/>
<path style="fill:#816a6a; stroke:none;" d="M136 336L138 339L136 336z"/>
<path style="fill:#b2a7a7; stroke:none;" d="M180 336L181 337L180 336M182 336L183 337L182 336z"/>
<path style="fill:#795f5f; stroke:none;" d="M183 336L184 337L183 336z"/>
<path style="fill:#b2a7a7; stroke:none;" d="M250 336L251 337L250 336M252 336L253 337L252 336M254 336L255 337L254 336M290 336L291 337L290 336z"/>
<path style="fill:#795f5f; stroke:none;" d="M291 336L292 337L291 336z"/>
<path style="fill:#b2a7a7; stroke:none;" d="M293 336L294 337L293 336M316 336L317 337L316 336z"/>
<path style="fill:#978585; stroke:none;" d="M320 336L321 337L320 336z"/>
<path style="fill:#b2a7a7; stroke:none;" d="M321 336L320 338L321 336z"/>
<path style="fill:#978585; stroke:none;" d="M359 336L359 340L361 340L361 336L359 336M371.667 336.333L372.333 336.667L371.667 336.333z"/>
<path style="fill:#795f5f; stroke:none;" d="M391 336L392 337L391 336z"/>
<path style="fill:#b2a7a7; stroke:none;" d="M392 336L393 337L392 336z"/>
<path style="fill:#816a6a; stroke:none;" d="M86 337L87 338L86 337z"/>
<path style="fill:#795f5f; stroke:none;" d="M131 337L131 338L136 338L131 337z"/>
<path style="fill:#b2a7a7; stroke:none;" d="M178 337L179 338L178 337z"/>
<path style="fill:#795f5f; stroke:none;" d="M179 337L180 338L179 337z"/>
<path style="fill:#816a6a; stroke:none;" d="M183 337L185 339L183 337z"/>
<path style="fill:#b2a7a7; stroke:none;" d="M184 337L185 338L184 337z"/>
<path style="fill:#978585; stroke:none;" d="M251 337L252 338L251 337M253 337L254 338L253 337M292 337L293 338L292 337z"/>
<path style="fill:#795f5f; stroke:none;" d="M293.667 337.333L294.333 337.667L293.667 337.333z"/>
<path style="fill:#978585; stroke:none;" d="M295.333 337.667L295.667 338.333L295.333 337.667z"/>
<path style="fill:#b2a7a7; stroke:none;" d="M296 337L297 338L296 337z"/>
<path style="fill:#978585; stroke:none;" d="M316.667 337.333L317.333 337.667L316.667 337.333z"/>
<path style="fill:#816a6a; stroke:none;" d="M321.333 337.667L321.667 338.333L321.333 337.667z"/>
<path style="fill:#b2a7a7; stroke:none;" d="M371.333 337.667L371.667 338.333L371.333 337.667z"/>
<path style="fill:#816a6a; stroke:none;" d="M372.333 337.667L372.667 338.333L372.333 337.667z"/>
<path style="fill:#978585; stroke:none;" d="M391 337L392 338L391 337z"/>
<path style="fill:#816a6a; stroke:none;" d="M392.333 337.667L392.667 338.333L392.333 337.667z"/>
<path style="fill:#795f5f; stroke:none;" d="M89 338L90 339L89 338z"/>
<path style="fill:#b2a7a7; stroke:none;" d="M132 338L132 339L136 339L132 338z"/>
<path style="fill:#978585; stroke:none;" d="M136 338L139 340L139 339L136 338z"/>
<path style="fill:#795f5f; stroke:none;" d="M154 338L154 339L161 339L154 338z"/>
<path style="fill:#b2a7a7; stroke:none;" d="M161 338L162 339L161 338z"/>
<path style="fill:#978585; stroke:none;" d="M178.667 338.333L179.333 338.667L178.667 338.333z"/>
<path style="fill:#b2a7a7; stroke:none;" d="M183 338L184 339L183 338M251 338L252 339L251 338M253 338L254 339L253 338M294 338L295 339L294 338z"/>
<path style="fill:#795f5f; stroke:none;" d="M296 338L296 339L299 340L296 338z"/>
<path style="fill:#b2a7a7; stroke:none;" d="M298 338L299 339L298 338z"/>
<path style="fill:#795f5f; stroke:none;" d="M316 338L317 339L316 338z"/>
<path style="fill:#b2a7a7; stroke:none;" d="M317 338L318 339L317 338M322 338L323 339L322 338z"/>
<path style="fill:#978585; stroke:none;" d="M393 338L394 339L393 338z"/>
<path style="fill:#795f5f; stroke:none;" d="M90.6667 339.333L91.3333 339.667L90.6667 339.333z"/>
<path style="fill:#d9d9d9; stroke:none;" d="M132 339L132 343L137 343L137 339L132 339z"/>
<path style="fill:#816a6a; stroke:none;" d="M154 339L154 344L155 344L154 339z"/>
<path style="fill:#b2a7a7; stroke:none;" d="M155 339L155 340L161 340L155 339z"/>
<path style="fill:#795f5f; stroke:none;" d="M178 339L186 342L185 339L178 339z"/>
<path style="fill:#b2a7a7; stroke:none;" d="M179 339L180 340L179 339M185 339L186 340L185 339z"/>
<path style="fill:#978585; stroke:none;" d="M297 339L298 340L297 339z"/>
<path style="fill:#b2a7a7; stroke:none;" d="M299 339L300 340L299 339M315 339L316 340L315 339z"/>
<path style="fill:#816a6a; stroke:none;" d="M316 339L315 341L316 339z"/>
<path style="fill:#978585; stroke:none;" d="M321.667 339.333L322.333 339.667L321.667 339.333M371.667 339.333L372.333 339.667L371.667 339.333z"/>
<path style="fill:#b2a7a7; stroke:none;" d="M392 339L393 340L392 339z"/>
<path style="fill:#795f5f; stroke:none;" d="M393 339L394 340L393 339z"/>
<path style="fill:#816a6a; stroke:none;" d="M92.6667 340.333L93.3333 340.667L92.6667 340.333z"/>
<path style="fill:#b2a7a7; stroke:none;" d="M137.333 340.667L137.667 341.333L137.333 340.667z"/>
<path style="fill:#816a6a; stroke:none;" d="M138 340L135 345L138 340z"/>
<path style="fill:#b2a7a7; stroke:none;" d="M177 340L178 341L177 340z"/>
<path style="fill:#978585; stroke:none;" d="M185 340L186 341L185 340z"/>
<path style="fill:#816a6a; stroke:none;" d="M202 340L203 341L202 340z"/>
<path style="fill:#978585; stroke:none;" d="M298 340L298 342L300 342L300 340L298 340z"/>
<path style="fill:#795f5f; stroke:none;" d="M315 341L315 342L323 341L315 341z"/>
<path style="fill:#b2a7a7; stroke:none;" d="M359 340L360 341L359 340z"/>
<path style="fill:#795f5f; stroke:none;" d="M360 340L361 341L360 340z"/>
<path style="fill:#816a6a; stroke:none;" d="M371.333 340.667L371.667 341.333L371.333 340.667z"/>
<path style="fill:#b2a7a7; stroke:none;" d="M372 340L373 341L372 340z"/>
<path style="fill:#978585; stroke:none;" d="M393 340L394 341L393 340z"/>
<path style="fill:#816a6a; stroke:none;" d="M394.333 340.667L394.667 341.333L394.333 340.667z"/>
<path style="fill:#978585; stroke:none;" d="M94.6667 341.333L95.3333 341.667L94.6667 341.333z"/>
<path style="fill:#816a6a; stroke:none;" d="M177 341L178 342L177 341z"/>
<path style="fill:#978585; stroke:none;" d="M178 341L179 342L178 341z"/>
<path style="fill:#b2a7a7; stroke:none;" d="M179 341L179 342L185 342L179 341z"/>
<path style="fill:#795f5f; stroke:none;" d="M202 341L203 342L202 341M210 341L211 342L210 341z"/>
<path style="fill:#b2a7a7; stroke:none;" d="M290 341L291 342L290 341M314 341L315 342L314 341M316 341L316 342L323 343L316 341z"/>
<path style="fill:#978585; stroke:none;" d="M322.667 341.333L323.333 341.667L322.667 341.333M360 341L360 342L363 343L360 341M370 341L369 343L370 341z"/>
<path style="fill:#795f5f; stroke:none;" d="M395.333 341.667L395.667 342.333L395.333 341.667z"/>
<path style="fill:#978585; stroke:none;" d="M97 342L98 343L97 342z"/>
<path style="fill:#b2a7a7; stroke:none;" d="M98 342L99 343L98 342z"/>
<path style="fill:#978585; stroke:none;" d="M138 342L139 343L138 342z"/>
<path style="fill:#b2a7a7; stroke:none;" d="M176 342L177 343L176 342z"/>
<path style="fill:#795f5f; stroke:none;" d="M177 342L178 343L177 342z"/>
<path style="fill:#816a6a; stroke:none;" d="M185 342L187 344L185 342z"/>
<path style="fill:#b2a7a7; stroke:none;" d="M186 342L187 343L186 342z"/>
<path style="fill:#816a6a; stroke:none;" d="M202 342L203 343L202 342z"/>
<path style="fill:#978585; stroke:none;" d="M203 342L204 345L205 345L203 342M209 342L210 343L209 342z"/>
<path style="fill:#816a6a; stroke:none;" d="M210 342L211 343L210 342M290 342L291 343L290 342z"/>
<path style="fill:#978585; stroke:none;" d="M291 342L292 345L293 345L291 342z"/>
<path style="fill:#816a6a; stroke:none;" d="M298 342L297 344L298 342z"/>
<path style="fill:#b2a7a7; stroke:none;" d="M299 342L300 343L299 342z"/>
<path style="fill:#978585; stroke:none;" d="M314.667 342.333L315.333 342.667L314.667 342.333z"/>
<path style="fill:#816a6a; stroke:none;" d="M323 342L324 343L323 342M361 342L362 343L361 342z"/>
<path style="fill:#795f5f; stroke:none;" d="M370 342L371 343L370 342z"/>
<path style="fill:#b2a7a7; stroke:none;" d="M371 342L372 343L371 342M394 342L395 343L394 342M132 343L132 344L136 344L132 343M155 343L155 344L162 345L155 343z"/>
<path style="fill:#978585; stroke:none;" d="M176.667 343.333L177.333 343.667L176.667 343.333z"/>
<path style="fill:#b2a7a7; stroke:none;" d="M185 343L186 344L185 343M202 343L203 344L202 343z"/>
<path style="fill:#795f5f; stroke:none;" d="M203 343L204 344L203 343z"/>
<path style="fill:#b2a7a7; stroke:none;" d="M205.667 343.333L206.333 343.667L205.667 343.333z"/>
<path style="fill:#978585; stroke:none;" d="M207 343L209 345L207 343z"/>
<path style="fill:#816a6a; stroke:none;" d="M208 343L209 344L208 343z"/>
<path style="fill:#795f5f; stroke:none;" d="M209 343L210 344L209 343z"/>
<path style="fill:#b2a7a7; stroke:none;" d="M210 343L211 344L210 343M290 343L291 344L290 343z"/>
<path style="fill:#795f5f; stroke:none;" d="M291 343L292 344L291 343z"/>
<path style="fill:#b2a7a7; stroke:none;" d="M293 343L293 344L298 345L293 343z"/>
<path style="fill:#978585; stroke:none;" d="M298 343L299 344L298 343z"/>
<path style="fill:#795f5f; stroke:none;" d="M314 343L315 344L314 343z"/>
<path style="fill:#b2a7a7; stroke:none;" d="M315 343L316 344L315 343z"/>
<path style="fill:#795f5f; stroke:none;" d="M323 343L324 344L323 343z"/>
<path style="fill:#b2a7a7; stroke:none;" d="M324 343L325 344L324 343M341 343L341 344L346 345L341 343z"/>
<path style="fill:#816a6a; stroke:none;" d="M362.667 343.333L363.333 343.667L362.667 343.333z"/>
<path style="fill:#978585; stroke:none;" d="M364.333 343.667L364.667 344.333L364.333 343.667z"/>
<path style="fill:#b2a7a7; stroke:none;" d="M365.667 343.333L366.333 343.667L365.667 343.333z"/>
<path style="fill:#978585; stroke:none;" d="M367 343L368 344L367 343z"/>
<path style="fill:#816a6a; stroke:none;" d="M365 344L365 345L370 344L365 344z"/>
<path style="fill:#b2a7a7; stroke:none;" d="M370 343L371 344L370 343z"/>
<path style="fill:#978585; stroke:none;" d="M395 343L396 344L395 343z"/>
<path style="fill:#795f5f; stroke:none;" d="M131 344L131 345L135 345L131 344z"/>
<path style="fill:#978585; stroke:none;" d="M136 344L137 345L136 344z"/>
<path style="fill:#795f5f; stroke:none;" d="M154 344L154 345L161 345L154 344M176 344L177 345L176 344z"/>
<path style="fill:#b2a7a7; stroke:none;" d="M177 344L178 345L177 344z"/>
<path style="fill:#795f5f; stroke:none;" d="M186 344L187 345L186 344z"/>
<path style="fill:#b2a7a7; stroke:none;" d="M187 344L188 345L187 344z"/>
<path style="fill:#816a6a; stroke:none;" d="M205 344L205 345L208 345L205 344M293 344L293 345L296 345L293 344z"/>
<path style="fill:#978585; stroke:none;" d="M296 344L297 345L296 344z"/>
<path style="fill:#b2a7a7; stroke:none;" d="M313 344L314 345L313 344z"/>
<path style="fill:#816a6a; stroke:none;" d="M314 344L315 345L314 344z"/>
<path style="fill:#978585; stroke:none;" d="M323.667 344.333L324.333 344.667L323.667 344.333z"/>
<path style="fill:#795f5f; stroke:none;" d="M340 344L340 345L345 345L340 344z"/>
<path style="fill:#b2a7a7; stroke:none;" d="M363 344L364 345L363 344M368 344L369 345L368 344z"/>
</svg>
